<?xml version="1.0" standalone="no"?>
<!DOCTYPE svg PUBLIC "-//W3C//DTD SVG 20010904//EN"
 "http://www.w3.org/TR/2001/REC-SVG-20010904/DTD/svg10.dtd">
<svg version="1.0" xmlns="http://www.w3.org/2000/svg"
 width="350.000000pt" height="350.000000pt" viewBox="0 0 350.000000 350.000000"
 preserveAspectRatio="xMidYMid meet">
<metadata>
Created by potrace 1.14, written by Peter Selinger 2001-2017
</metadata>
<g transform="translate(0.000000,350.000000) scale(0.100000,-0.100000)"
fill="#000000" stroke="none">
<path d="M0 1750 l0 -1750 1750 0 1750 0 0 1750 0 1750 -1750 0 -1750 0 0
-1750z m2789 1130 c56 -32 68 -65 69 -185 1 -111 25 -246 49 -284 9 -14 86
-104 172 -200 226 -254 214 -238 209 -286 -3 -23 -13 -53 -23 -68 -20 -31
-106 -75 -155 -79 -23 -2 -40 -10 -51 -26 -15 -21 -14 -35 12 -189 16 -91 31
-194 33 -229 4 -47 14 -80 42 -134 34 -64 38 -79 36 -137 -2 -76 -24 -123 -64
-137 -83 -29 -164 66 -204 241 -8 37 -28 109 -44 158 -31 98 -37 124 -45 200
-12 126 -18 155 -39 191 -53 96 -288 167 -396 121 -32 -14 -40 -14 -88 3 -49
17 -81 18 -83 1 0 -3 -2 -15 -4 -25 -2 -11 -7 -78 -10 -150 -4 -72 -8 -151
-10 -176 -2 -25 -7 -88 -10 -140 -9 -130 -42 -384 -58 -447 -20 -77 -39 -101
-75 -95 -61 8 -71 86 -43 312 18 150 34 395 32 495 0 22 -18 108 -39 191 l-37
151 -2 -126 c-2 -144 -14 -201 -56 -286 -27 -56 -122 -182 -185 -248 -15 -16
-74 -52 -132 -80 -58 -28 -135 -71 -172 -94 -37 -24 -168 -93 -290 -153 -246
-120 -361 -192 -486 -303 -92 -82 -126 -97 -224 -97 -46 0 -76 6 -108 22 -90
46 -100 89 -70 298 17 124 17 126 -6 285 -13 88 -24 192 -24 230 0 123 33 313
91 518 28 98 31 125 34 280 3 145 7 189 30 282 16 66 25 122 21 143 -7 48 -40
112 -83 161 l-37 43 25 19 c38 28 113 43 188 35 36 -4 126 -7 200 -7 113 -1
143 -4 200 -24 121 -42 295 -93 361 -105 76 -14 114 -30 191 -81 178 -119 352
-338 483 -608 30 -62 46 -86 46 -70 1 13 22 78 47 144 l46 120 2 135 c1 118 8
253 20 384 4 45 40 88 69 84 33 -5 54 -57 77 -184 17 -97 19 -140 13 -234 -3
-63 -7 -155 -8 -203 -1 -87 0 -89 29 -113 51 -42 194 -74 340 -78 39 -1 56 3
76 22 38 34 31 79 -51 312 -62 179 -68 204 -65 261 7 136 25 216 59 258 16 21
124 9 175 -19z"/>
<path d="M590 2647 c-29 -47 -34 -86 -26 -226 5 -105 0 -184 -29 -471 -32
-314 -35 -373 -35 -656 0 -335 5 -374 45 -374 41 0 493 203 544 244 59 49 133
86 251 127 78 27 105 42 149 84 129 121 211 254 211 343 0 100 -66 399 -114
514 -18 41 -211 240 -280 287 -63 44 -159 87 -231 105 -33 8 -136 22 -230 31
-93 8 -185 17 -203 19 -29 4 -36 1 -52 -27z"/>
</g>
</svg>
